<mxfile host="app.diagrams.net" agent="Mozilla/5.0 (Macintosh; Intel Mac OS X 10_15_7) AppleWebKit/537.36 (KHTML, like Gecko) Chrome/134.0.0.0 Safari/537.36" version="26.2.4">
  <diagram name="第 1 页" id="GQMvtW2MjCBeKaKqKwc_">
    <mxGraphModel dx="1134" dy="725" grid="1" gridSize="10" guides="1" tooltips="1" connect="1" arrows="1" fold="1" page="1" pageScale="1" pageWidth="827" pageHeight="1169" math="0" shadow="0">
      <root>
        <mxCell id="0" />
        <mxCell id="1" parent="0" />
        <mxCell id="mCnlmI2ltX-tOoQuIW3s-1" value="&lt;div&gt;&lt;b style=&quot;font-family: Helvetica; background-color: transparent; color: light-dark(rgb(0, 0, 0), rgb(255, 255, 255));&quot;&gt;store&lt;/b&gt;&lt;/div&gt;" style="shape=cylinder3;whiteSpace=wrap;html=1;boundedLbl=1;backgroundOutline=1;size=15;hachureGap=4;strokeColor=#b85450;fontFamily=Architects Daughter;fontSource=https%3A%2F%2Ffonts.googleapis.com%2Fcss%3Ffamily%3DArchitects%2BDaughter;fillColor=#f8cecc;sketch=1;curveFitting=1;jiggle=2;" parent="1" vertex="1">
          <mxGeometry x="564" y="610" width="108" height="90" as="geometry" />
        </mxCell>
        <mxCell id="mCnlmI2ltX-tOoQuIW3s-2" value="" style="edgeStyle=orthogonalEdgeStyle;fontSize=12;html=1;endArrow=ERmandOne;startArrow=ERmandOne;rounded=0;hachureGap=4;strokeColor=#A8201A;fontFamily=Architects Daughter;fontSource=https%3A%2F%2Ffonts.googleapis.com%2Fcss%3Ffamily%3DArchitects%2BDaughter;fontColor=#143642;fillColor=#FAE5C7;exitX=0.5;exitY=0;exitDx=0;exitDy=0;sketch=1;curveFitting=1;jiggle=2;entryX=-0.004;entryY=0.255;entryDx=0;entryDy=0;entryPerimeter=0;" parent="1" source="mCnlmI2ltX-tOoQuIW3s-5" target="mCnlmI2ltX-tOoQuIW3s-1" edge="1">
          <mxGeometry width="100" height="100" relative="1" as="geometry">
            <mxPoint x="1132.74" y="697.6800000000001" as="sourcePoint" />
            <mxPoint x="1528" y="600" as="targetPoint" />
          </mxGeometry>
        </mxCell>
        <mxCell id="mCnlmI2ltX-tOoQuIW3s-3" value="" style="endArrow=classic;html=1;rounded=0;hachureGap=4;strokeColor=#A8201A;fontFamily=Architects Daughter;fontSource=https%3A%2F%2Ffonts.googleapis.com%2Fcss%3Ffamily%3DArchitects%2BDaughter;fontColor=#143642;fillColor=#FAE5C7;sketch=1;curveFitting=1;jiggle=2;exitX=0.701;exitY=0.938;exitDx=0;exitDy=0;curved=1;exitPerimeter=0;entryX=0.5;entryY=0;entryDx=0;entryDy=0;entryPerimeter=0;" parent="1" source="mCnlmI2ltX-tOoQuIW3s-31" target="mCnlmI2ltX-tOoQuIW3s-1" edge="1">
          <mxGeometry width="50" height="50" relative="1" as="geometry">
            <mxPoint x="455.8800000000001" y="538.4799999999998" as="sourcePoint" />
            <mxPoint x="580" y="580" as="targetPoint" />
            <Array as="points">
              <mxPoint x="610" y="550" />
            </Array>
          </mxGeometry>
        </mxCell>
        <mxCell id="mCnlmI2ltX-tOoQuIW3s-4" value="" style="endArrow=classic;html=1;rounded=0;hachureGap=4;strokeColor=#A8201A;fontFamily=Architects Daughter;fontSource=https%3A%2F%2Ffonts.googleapis.com%2Fcss%3Ffamily%3DArchitects%2BDaughter;fontColor=#143642;fillColor=#FAE5C7;sketch=1;curveFitting=1;jiggle=2;exitX=0.831;exitY=1.125;exitDx=0;exitDy=0;curved=1;exitPerimeter=0;entryX=0.268;entryY=0.028;entryDx=0;entryDy=0;entryPerimeter=0;" parent="1" source="mCnlmI2ltX-tOoQuIW3s-22" target="mCnlmI2ltX-tOoQuIW3s-31" edge="1">
          <mxGeometry width="50" height="50" relative="1" as="geometry">
            <mxPoint x="397" y="409" as="sourcePoint" />
            <mxPoint x="512" y="440" as="targetPoint" />
            <Array as="points">
              <mxPoint x="460" y="390" />
            </Array>
          </mxGeometry>
        </mxCell>
        <mxCell id="mCnlmI2ltX-tOoQuIW3s-5" value="&lt;font style=&quot;&quot; face=&quot;Helvetica&quot;&gt;I18nGroups&lt;/font&gt;" style="swimlane;childLayout=stackLayout;resizeParent=1;resizeParentMax=0;horizontal=1;startSize=20;horizontalStack=0;html=1;hachureGap=4;strokeColor=#0F8B8D;fontFamily=Architects Daughter;fontSource=https%3A%2F%2Ffonts.googleapis.com%2Fcss%3Ffamily%3DArchitects%2BDaughter;fontColor=#143642;fillColor=#FAE5C7;sketch=1;curveFitting=1;jiggle=2;" parent="1" vertex="1">
          <mxGeometry x="210" y="650" width="134" height="157" as="geometry" />
        </mxCell>
        <mxCell id="mCnlmI2ltX-tOoQuIW3s-6" value="" style="swimlane;startSize=20;horizontal=0;html=1;hachureGap=4;strokeColor=#0F8B8D;fontFamily=Architects Daughter;fontSource=https%3A%2F%2Ffonts.googleapis.com%2Fcss%3Ffamily%3DArchitects%2BDaughter;fontColor=#143642;fillColor=#FAE5C7;flipV=0;flipH=0;sketch=1;curveFitting=1;jiggle=2;" parent="mCnlmI2ltX-tOoQuIW3s-5" vertex="1">
          <mxGeometry y="20" width="134" height="97" as="geometry">
            <mxRectangle y="20" width="146" height="30" as="alternateBounds" />
          </mxGeometry>
        </mxCell>
        <mxCell id="mCnlmI2ltX-tOoQuIW3s-7" value="&lt;div style=&quot;line-height: 18px; white-space: pre;&quot;&gt;&lt;font face=&quot;Helvetica&quot; style=&quot;color: rgb(0, 0, 0);&quot;&gt;key: string;&lt;/font&gt;&lt;/div&gt;" style="text;strokeColor=none;fillColor=none;align=left;verticalAlign=middle;spacingLeft=4;spacingRight=4;overflow=hidden;points=[[0,0.5],[1,0.5]];portConstraint=eastwest;rotatable=0;whiteSpace=wrap;html=1;fontFamily=Architects Daughter;fontSource=https%3A%2F%2Ffonts.googleapis.com%2Fcss%3Ffamily%3DArchitects%2BDaughter;fontColor=#143642;sketch=1;curveFitting=1;jiggle=2;" parent="mCnlmI2ltX-tOoQuIW3s-6" vertex="1">
          <mxGeometry x="20" width="114" height="20" as="geometry" />
        </mxCell>
        <mxCell id="mCnlmI2ltX-tOoQuIW3s-8" value="&lt;font face=&quot;Helvetica&quot;&gt;value: string;&lt;/font&gt;" style="text;strokeColor=none;fillColor=none;align=left;verticalAlign=middle;spacingLeft=4;spacingRight=4;overflow=hidden;points=[[0,0.5],[1,0.5]];portConstraint=eastwest;rotatable=0;whiteSpace=wrap;html=1;fontFamily=Architects Daughter;fontSource=https%3A%2F%2Ffonts.googleapis.com%2Fcss%3Ffamily%3DArchitects%2BDaughter;fontColor=#143642;sketch=1;curveFitting=1;jiggle=2;" parent="mCnlmI2ltX-tOoQuIW3s-6" vertex="1">
          <mxGeometry x="20" y="20" width="114" height="20" as="geometry" />
        </mxCell>
        <mxCell id="mCnlmI2ltX-tOoQuIW3s-9" value="&lt;font face=&quot;Helvetica&quot;&gt;filePath?: string;&lt;/font&gt;" style="text;strokeColor=none;fillColor=none;align=left;verticalAlign=middle;spacingLeft=4;spacingRight=4;overflow=hidden;points=[[0,0.5],[1,0.5]];portConstraint=eastwest;rotatable=0;whiteSpace=wrap;html=1;fontFamily=Architects Daughter;fontSource=https%3A%2F%2Ffonts.googleapis.com%2Fcss%3Ffamily%3DArchitects%2BDaughter;fontColor=#143642;sketch=1;curveFitting=1;jiggle=2;" parent="mCnlmI2ltX-tOoQuIW3s-6" vertex="1">
          <mxGeometry x="20" y="40" width="114" height="20" as="geometry" />
        </mxCell>
        <mxCell id="mCnlmI2ltX-tOoQuIW3s-10" value="&lt;font face=&quot;Helvetica&quot;&gt;line?: number;&lt;/font&gt;" style="text;strokeColor=none;fillColor=none;align=left;verticalAlign=middle;spacingLeft=4;spacingRight=4;overflow=hidden;points=[[0,0.5],[1,0.5]];portConstraint=eastwest;rotatable=0;whiteSpace=wrap;html=1;fontFamily=Architects Daughter;fontSource=https%3A%2F%2Ffonts.googleapis.com%2Fcss%3Ffamily%3DArchitects%2BDaughter;fontColor=#143642;sketch=1;curveFitting=1;jiggle=2;" parent="mCnlmI2ltX-tOoQuIW3s-6" vertex="1">
          <mxGeometry x="20" y="60" width="114" height="20" as="geometry" />
        </mxCell>
        <mxCell id="mCnlmI2ltX-tOoQuIW3s-11" value="&lt;font face=&quot;Helvetica&quot; style=&quot;font-size: 13px;&quot;&gt;&lt;span style=&quot;&quot;&gt;...&lt;/span&gt;&lt;/font&gt;" style="text;strokeColor=none;fillColor=none;align=left;verticalAlign=middle;spacingLeft=4;spacingRight=4;overflow=hidden;points=[[0,0.5],[1,0.5]];portConstraint=eastwest;rotatable=0;whiteSpace=wrap;html=1;fontFamily=Architects Daughter;fontSource=https%3A%2F%2Ffonts.googleapis.com%2Fcss%3Ffamily%3DArchitects%2BDaughter;fontColor=#143642;shadow=0;rounded=0;sketch=1;curveFitting=1;jiggle=2;fontStyle=1" parent="mCnlmI2ltX-tOoQuIW3s-6" vertex="1">
          <mxGeometry x="20" y="75" width="114" height="20" as="geometry" />
        </mxCell>
        <mxCell id="mCnlmI2ltX-tOoQuIW3s-12" value="&lt;font face=&quot;Helvetica&quot;&gt;&lt;b&gt;0&lt;/b&gt;&lt;/font&gt;" style="text;html=1;align=center;verticalAlign=middle;whiteSpace=wrap;rounded=0;fontFamily=Architects Daughter;fontSource=https%3A%2F%2Ffonts.googleapis.com%2Fcss%3Ffamily%3DArchitects%2BDaughter;fontColor=#143642;sketch=1;curveFitting=1;jiggle=2;" parent="mCnlmI2ltX-tOoQuIW3s-6" vertex="1">
          <mxGeometry x="3" y="45" width="14" height="10" as="geometry" />
        </mxCell>
        <mxCell id="mCnlmI2ltX-tOoQuIW3s-13" value="" style="swimlane;startSize=20;horizontal=0;html=1;hachureGap=4;strokeColor=#0F8B8D;fontFamily=Architects Daughter;fontSource=https%3A%2F%2Ffonts.googleapis.com%2Fcss%3Ffamily%3DArchitects%2BDaughter;fontColor=#143642;fillColor=#FAE5C7;sketch=1;curveFitting=1;jiggle=2;" parent="mCnlmI2ltX-tOoQuIW3s-5" vertex="1">
          <mxGeometry y="117" width="134" height="20" as="geometry" />
        </mxCell>
        <mxCell id="mCnlmI2ltX-tOoQuIW3s-14" value="&lt;font face=&quot;Helvetica&quot;&gt;&lt;span&gt;...&lt;/span&gt;&lt;/font&gt;" style="text;strokeColor=none;fillColor=none;align=left;verticalAlign=middle;spacingLeft=4;spacingRight=4;overflow=hidden;points=[[0,0.5],[1,0.5]];portConstraint=eastwest;rotatable=0;whiteSpace=wrap;html=1;fontFamily=Architects Daughter;fontSource=https%3A%2F%2Ffonts.googleapis.com%2Fcss%3Ffamily%3DArchitects%2BDaughter;fontColor=#143642;shadow=0;rounded=0;sketch=1;curveFitting=1;jiggle=2;fontSize=13;fontStyle=1" parent="mCnlmI2ltX-tOoQuIW3s-13" vertex="1">
          <mxGeometry x="20" width="114" height="20" as="geometry" />
        </mxCell>
        <mxCell id="mCnlmI2ltX-tOoQuIW3s-15" value="&lt;font face=&quot;Helvetica&quot;&gt;&lt;b&gt;1&lt;/b&gt;&lt;/font&gt;" style="text;html=1;align=center;verticalAlign=middle;whiteSpace=wrap;rounded=0;fontFamily=Architects Daughter;fontSource=https%3A%2F%2Ffonts.googleapis.com%2Fcss%3Ffamily%3DArchitects%2BDaughter;fontColor=#143642;sketch=1;curveFitting=1;jiggle=2;" parent="mCnlmI2ltX-tOoQuIW3s-13" vertex="1">
          <mxGeometry x="2" y="5" width="17" height="10" as="geometry" />
        </mxCell>
        <mxCell id="mCnlmI2ltX-tOoQuIW3s-16" value="" style="swimlane;startSize=20;horizontal=0;html=1;hachureGap=4;strokeColor=#0F8B8D;fontFamily=Architects Daughter;fontSource=https%3A%2F%2Ffonts.googleapis.com%2Fcss%3Ffamily%3DArchitects%2BDaughter;fontColor=#143642;fillColor=#FAE5C7;sketch=1;curveFitting=1;jiggle=2;" parent="mCnlmI2ltX-tOoQuIW3s-5" vertex="1">
          <mxGeometry y="137" width="134" height="20" as="geometry" />
        </mxCell>
        <mxCell id="mCnlmI2ltX-tOoQuIW3s-17" value="&lt;font face=&quot;Helvetica&quot;&gt;&lt;span&gt;...&lt;/span&gt;&lt;/font&gt;" style="text;strokeColor=none;fillColor=none;align=left;verticalAlign=middle;spacingLeft=4;spacingRight=4;overflow=hidden;points=[[0,0.5],[1,0.5]];portConstraint=eastwest;rotatable=0;whiteSpace=wrap;html=1;fontFamily=Architects Daughter;fontSource=https%3A%2F%2Ffonts.googleapis.com%2Fcss%3Ffamily%3DArchitects%2BDaughter;fontColor=#143642;shadow=0;rounded=0;sketch=1;curveFitting=1;jiggle=2;fontSize=13;fontStyle=1" parent="mCnlmI2ltX-tOoQuIW3s-16" vertex="1">
          <mxGeometry x="20" width="114" height="20" as="geometry" />
        </mxCell>
        <mxCell id="mCnlmI2ltX-tOoQuIW3s-18" value="&lt;font face=&quot;Helvetica&quot;&gt;&lt;b&gt;2&lt;/b&gt;&lt;/font&gt;" style="text;html=1;align=center;verticalAlign=middle;whiteSpace=wrap;rounded=0;fontFamily=Architects Daughter;fontSource=https%3A%2F%2Ffonts.googleapis.com%2Fcss%3Ffamily%3DArchitects%2BDaughter;fontColor=#143642;sketch=1;curveFitting=1;jiggle=2;" parent="mCnlmI2ltX-tOoQuIW3s-16" vertex="1">
          <mxGeometry x="2" y="6" width="17" height="10" as="geometry" />
        </mxCell>
        <mxCell id="mCnlmI2ltX-tOoQuIW3s-19" value="trigger event" style="swimlane;fontStyle=1;align=center;verticalAlign=top;childLayout=stackLayout;horizontal=1;startSize=26;horizontalStack=0;resizeParent=1;resizeParentMax=0;resizeLast=0;collapsible=1;marginBottom=0;whiteSpace=wrap;html=1;hachureGap=4;strokeColor=#d79b00;fontFamily=Helvetica;fillColor=#ffe6cc;sketch=1;curveFitting=1;jiggle=2;" parent="1" vertex="1">
          <mxGeometry x="210" y="269" width="200" height="90" as="geometry" />
        </mxCell>
        <mxCell id="mCnlmI2ltX-tOoQuIW3s-20" value="init" style="text;strokeColor=none;fillColor=none;align=center;verticalAlign=top;spacingLeft=4;spacingRight=4;overflow=hidden;rotatable=0;points=[[0,0.5],[1,0.5]];portConstraint=eastwest;whiteSpace=wrap;html=1;fontFamily=Helvetica;fontColor=#143642;sketch=1;curveFitting=1;jiggle=2;" parent="mCnlmI2ltX-tOoQuIW3s-19" vertex="1">
          <mxGeometry y="26" width="200" height="20" as="geometry" />
        </mxCell>
        <mxCell id="mCnlmI2ltX-tOoQuIW3s-21" value="i18n file change" style="text;strokeColor=none;fillColor=none;align=center;verticalAlign=top;spacingLeft=4;spacingRight=4;overflow=hidden;rotatable=0;points=[[0,0.5],[1,0.5]];portConstraint=eastwest;whiteSpace=wrap;html=1;fontFamily=Helvetica;fontColor=#143642;sketch=1;curveFitting=1;jiggle=2;" parent="mCnlmI2ltX-tOoQuIW3s-19" vertex="1">
          <mxGeometry y="46" width="200" height="20" as="geometry" />
        </mxCell>
        <mxCell id="mCnlmI2ltX-tOoQuIW3s-22" value="&lt;b&gt;config.i18nFilePattern&lt;/b&gt; change" style="text;strokeColor=none;fillColor=none;align=center;verticalAlign=top;spacingLeft=4;spacingRight=4;overflow=hidden;rotatable=0;points=[[0,0.5],[1,0.5]];portConstraint=eastwest;whiteSpace=wrap;html=1;fontFamily=Helvetica;fontColor=#143642;sketch=1;curveFitting=1;jiggle=2;" parent="mCnlmI2ltX-tOoQuIW3s-19" vertex="1">
          <mxGeometry y="66" width="200" height="24" as="geometry" />
        </mxCell>
        <mxCell id="mCnlmI2ltX-tOoQuIW3s-23" value="command convert" style="text;html=1;align=center;verticalAlign=middle;whiteSpace=wrap;rounded=0;fontFamily=Helvetica;fontColor=#143642;fontStyle=1;sketch=1;curveFitting=1;jiggle=2;" parent="1" vertex="1">
          <mxGeometry x="784" y="269" width="120" height="20" as="geometry" />
        </mxCell>
        <mxCell id="mCnlmI2ltX-tOoQuIW3s-24" value="code" style="text;html=1;align=center;verticalAlign=middle;whiteSpace=wrap;rounded=0;fontFamily=Helvetica;fontColor=#143642;fontStyle=1;sketch=1;curveFitting=1;jiggle=2;" parent="1" vertex="1">
          <mxGeometry x="1030" y="788" width="51.5" height="22" as="geometry" />
        </mxCell>
        <mxCell id="mCnlmI2ltX-tOoQuIW3s-25" value="&lt;font face=&quot;Helvetica&quot;&gt;hook.matchI18n&lt;/font&gt;" style="ellipse;whiteSpace=wrap;html=1;sketch=1;hachureGap=4;jiggle=2;curveFitting=1;fontFamily=Architects Daughter;fontSource=https%3A%2F%2Ffonts.googleapis.com%2Fcss%3Ffamily%3DArchitects%2BDaughter;fillColor=#dae8fc;strokeColor=#6c8ebf;flipV=0;" parent="1" vertex="1">
          <mxGeometry x="789" y="747" width="110" height="60" as="geometry" />
        </mxCell>
        <mxCell id="mCnlmI2ltX-tOoQuIW3s-26" value="" style="endArrow=classic;html=1;rounded=0;sketch=1;hachureGap=4;jiggle=2;curveFitting=1;fontFamily=Architects Daughter;fontSource=https%3A%2F%2Ffonts.googleapis.com%2Fcss%3Ffamily%3DArchitects%2BDaughter;entryX=1;entryY=0;entryDx=0;entryDy=60;entryPerimeter=0;curved=1;fillColor=#f8cecc;strokeColor=#b85450;dashed=1;" parent="1" source="mCnlmI2ltX-tOoQuIW3s-30" target="mCnlmI2ltX-tOoQuIW3s-1" edge="1">
          <mxGeometry width="50" height="50" relative="1" as="geometry">
            <mxPoint x="659.0360000000001" y="1072" as="sourcePoint" />
            <mxPoint x="635" y="700" as="targetPoint" />
            <Array as="points">
              <mxPoint x="870" y="630" />
            </Array>
          </mxGeometry>
        </mxCell>
        <mxCell id="mCnlmI2ltX-tOoQuIW3s-27" value="query" style="edgeLabel;html=1;align=center;verticalAlign=middle;resizable=0;points=[];sketch=1;hachureGap=4;jiggle=2;curveFitting=1;fontFamily=Helvetica;fontSize=12;" parent="mCnlmI2ltX-tOoQuIW3s-26" vertex="1" connectable="0">
          <mxGeometry x="0.1786" relative="1" as="geometry">
            <mxPoint x="29" y="25" as="offset" />
          </mxGeometry>
        </mxCell>
        <mxCell id="mCnlmI2ltX-tOoQuIW3s-28" value="" style="endArrow=classic;html=1;rounded=0;sketch=1;hachureGap=4;jiggle=2;curveFitting=1;fontFamily=Architects Daughter;fontSource=https%3A%2F%2Ffonts.googleapis.com%2Fcss%3Ffamily%3DArchitects%2BDaughter;curved=1;dashed=1;fillColor=#f8cecc;strokeColor=#b85450;exitX=0.976;exitY=0.61;exitDx=0;exitDy=0;exitPerimeter=0;" parent="1" source="mCnlmI2ltX-tOoQuIW3s-25" target="mCnlmI2ltX-tOoQuIW3s-30" edge="1">
          <mxGeometry width="50" height="50" relative="1" as="geometry">
            <mxPoint x="884" y="811" as="sourcePoint" />
            <mxPoint x="838" y="799" as="targetPoint" />
            <Array as="points">
              <mxPoint x="970" y="782" />
            </Array>
          </mxGeometry>
        </mxCell>
        <mxCell id="mCnlmI2ltX-tOoQuIW3s-29" value="view" style="edgeLabel;html=1;align=center;verticalAlign=middle;resizable=0;points=[];sketch=1;hachureGap=4;jiggle=2;curveFitting=1;fontFamily=Helvetica;fontSize=12;" parent="mCnlmI2ltX-tOoQuIW3s-28" vertex="1" connectable="0">
          <mxGeometry x="-0.0355" y="5" relative="1" as="geometry">
            <mxPoint y="-2" as="offset" />
          </mxGeometry>
        </mxCell>
        <mxCell id="mCnlmI2ltX-tOoQuIW3s-30" value="" style="sketch=0;outlineConnect=0;fontColor=#232F3E;gradientColor=none;fillColor=#000000;strokeColor=none;dashed=0;verticalLabelPosition=bottom;verticalAlign=top;align=center;html=1;fontSize=12;fontStyle=0;aspect=fixed;pointerEvents=1;shape=mxgraph.aws4.source_code;hachureGap=4;jiggle=2;curveFitting=1;fontFamily=Architects Daughter;fontSource=https%3A%2F%2Ffonts.googleapis.com%2Fcss%3Ffamily%3DArchitects%2BDaughter;flipV=0;" parent="1" vertex="1">
          <mxGeometry x="1032.25" y="710" width="47" height="78" as="geometry" />
        </mxCell>
        <mxCell id="mCnlmI2ltX-tOoQuIW3s-31" value="&lt;span style=&quot;color: rgb(51, 51, 51); font-family: Helvetica;&quot;&gt;hook.collectI18n&lt;/span&gt;" style="ellipse;whiteSpace=wrap;html=1;sketch=1;hachureGap=4;jiggle=2;curveFitting=1;fontFamily=Architects Daughter;fontSource=https%3A%2F%2Ffonts.googleapis.com%2Fcss%3Ffamily%3DArchitects%2BDaughter;fillColor=#dae8fc;strokeColor=#6c8ebf;" parent="1" vertex="1">
          <mxGeometry x="480" y="439" width="120" height="60" as="geometry" />
        </mxCell>
        <mxCell id="mCnlmI2ltX-tOoQuIW3s-32" value="command paste" style="text;html=1;align=center;verticalAlign=middle;whiteSpace=wrap;rounded=0;fontFamily=Helvetica;fontColor=#143642;fontStyle=1;sketch=1;curveFitting=1;jiggle=2;" parent="1" vertex="1">
          <mxGeometry x="1002.06" y="269" width="107.38" height="20" as="geometry" />
        </mxCell>
        <mxCell id="mCnlmI2ltX-tOoQuIW3s-33" value="&lt;font face=&quot;Helvetica&quot;&gt;clipboard text&lt;/font&gt;" style="rounded=1;whiteSpace=wrap;html=1;sketch=1;hachureGap=4;jiggle=2;curveFitting=1;fontFamily=Architects Daughter;fontSource=https%3A%2F%2Ffonts.googleapis.com%2Fcss%3Ffamily%3DArchitects%2BDaughter;" parent="1" vertex="1">
          <mxGeometry x="995.75" y="299" width="120" height="60" as="geometry" />
        </mxCell>
        <mxCell id="mCnlmI2ltX-tOoQuIW3s-34" value="match" style="rounded=1;whiteSpace=wrap;html=1;sketch=1;hachureGap=4;jiggle=2;curveFitting=1;fontFamily=Helvetica;" parent="1" vertex="1">
          <mxGeometry x="784" y="299" width="120" height="60" as="geometry" />
        </mxCell>
        <mxCell id="mCnlmI2ltX-tOoQuIW3s-35" value="" style="endArrow=classic;html=1;rounded=0;sketch=1;hachureGap=4;jiggle=2;curveFitting=1;fontFamily=Architects Daughter;fontSource=https%3A%2F%2Ffonts.googleapis.com%2Fcss%3Ffamily%3DArchitects%2BDaughter;entryX=1;entryY=0.5;entryDx=0;entryDy=0;exitX=0;exitY=0.5;exitDx=0;exitDy=0;" parent="1" source="mCnlmI2ltX-tOoQuIW3s-33" target="mCnlmI2ltX-tOoQuIW3s-34" edge="1">
          <mxGeometry width="50" height="50" relative="1" as="geometry">
            <mxPoint x="1024" y="329" as="sourcePoint" />
            <mxPoint x="1014" y="309" as="targetPoint" />
          </mxGeometry>
        </mxCell>
        <mxCell id="mCnlmI2ltX-tOoQuIW3s-36" value="provide" style="edgeLabel;html=1;align=center;verticalAlign=middle;resizable=0;points=[];sketch=1;hachureGap=4;jiggle=2;curveFitting=1;fontFamily=Helvetica;fontSize=12;" parent="mCnlmI2ltX-tOoQuIW3s-35" vertex="1" connectable="0">
          <mxGeometry x="0.0163" y="-1" relative="1" as="geometry">
            <mxPoint x="4" y="-1" as="offset" />
          </mxGeometry>
        </mxCell>
        <mxCell id="mCnlmI2ltX-tOoQuIW3s-37" value="" style="endArrow=classic;html=1;rounded=0;sketch=1;hachureGap=4;jiggle=2;curveFitting=1;fontFamily=Architects Daughter;fontSource=https%3A%2F%2Ffonts.googleapis.com%2Fcss%3Ffamily%3DArchitects%2BDaughter;entryX=0.5;entryY=0;entryDx=0;entryDy=0;exitX=0.5;exitY=1;exitDx=0;exitDy=0;" parent="1" source="mCnlmI2ltX-tOoQuIW3s-34" target="mCnlmI2ltX-tOoQuIW3s-38" edge="1">
          <mxGeometry width="50" height="50" relative="1" as="geometry">
            <mxPoint x="1114" y="399" as="sourcePoint" />
            <mxPoint x="984" y="399" as="targetPoint" />
          </mxGeometry>
        </mxCell>
        <mxCell id="mCnlmI2ltX-tOoQuIW3s-38" value="is repeat" style="rounded=1;whiteSpace=wrap;html=1;sketch=1;hachureGap=4;jiggle=2;curveFitting=1;fontFamily=Helvetica;direction=east;" parent="1" vertex="1">
          <mxGeometry x="784" y="434" width="120" height="60" as="geometry" />
        </mxCell>
        <mxCell id="mCnlmI2ltX-tOoQuIW3s-39" value="" style="endArrow=classic;dashed=1;html=1;rounded=0;sketch=1;hachureGap=4;jiggle=2;curveFitting=1;fontFamily=Architects Daughter;fontSource=https%3A%2F%2Ffonts.googleapis.com%2Fcss%3Ffamily%3DArchitects%2BDaughter;curved=1;fillColor=#f8cecc;strokeColor=#b85450;startArrow=classic;startFill=1;endFill=1;entryX=0;entryY=0.5;entryDx=0;entryDy=0;exitX=0.794;exitY=0.03;exitDx=0;exitDy=0;exitPerimeter=0;" parent="1" source="mCnlmI2ltX-tOoQuIW3s-1" target="mCnlmI2ltX-tOoQuIW3s-38" edge="1">
          <mxGeometry width="50" height="50" relative="1" as="geometry">
            <mxPoint x="632" y="610" as="sourcePoint" />
            <mxPoint x="735" y="470" as="targetPoint" />
            <Array as="points">
              <mxPoint x="680" y="510" />
            </Array>
          </mxGeometry>
        </mxCell>
        <mxCell id="mCnlmI2ltX-tOoQuIW3s-40" value="query" style="edgeLabel;html=1;align=center;verticalAlign=middle;resizable=0;points=[];sketch=1;hachureGap=4;jiggle=2;curveFitting=1;fontFamily=Helvetica;fontSize=12;" parent="mCnlmI2ltX-tOoQuIW3s-39" vertex="1" connectable="0">
          <mxGeometry x="0.0951" y="-9" relative="1" as="geometry">
            <mxPoint x="2" y="8" as="offset" />
          </mxGeometry>
        </mxCell>
        <mxCell id="mCnlmI2ltX-tOoQuIW3s-41" value="" style="endArrow=classic;html=1;rounded=0;sketch=1;hachureGap=4;jiggle=2;curveFitting=1;fontFamily=Architects Daughter;fontSource=https%3A%2F%2Ffonts.googleapis.com%2Fcss%3Ffamily%3DArchitects%2BDaughter;entryX=0.5;entryY=0;entryDx=0;entryDy=0;exitX=0.5;exitY=1;exitDx=0;exitDy=0;" parent="1" source="mCnlmI2ltX-tOoQuIW3s-38" target="mCnlmI2ltX-tOoQuIW3s-42" edge="1">
          <mxGeometry width="50" height="50" relative="1" as="geometry">
            <mxPoint x="843.29" y="479" as="sourcePoint" />
            <mxPoint x="844" y="539" as="targetPoint" />
          </mxGeometry>
        </mxCell>
        <mxCell id="mCnlmI2ltX-tOoQuIW3s-42" value="&lt;span style=&quot;color: rgb(51, 51, 51); font-family: Helvetica;&quot;&gt;hook.convert&lt;/span&gt;" style="ellipse;whiteSpace=wrap;html=1;sketch=1;hachureGap=4;jiggle=2;curveFitting=1;fontFamily=Architects Daughter;fontSource=https%3A%2F%2Ffonts.googleapis.com%2Fcss%3Ffamily%3DArchitects%2BDaughter;fillColor=#dae8fc;strokeColor=#6c8ebf;" parent="1" vertex="1">
          <mxGeometry x="784" y="570" width="120" height="60" as="geometry" />
        </mxCell>
        <mxCell id="mCnlmI2ltX-tOoQuIW3s-44" value="" style="endArrow=none;html=1;rounded=0;sketch=1;hachureGap=4;jiggle=2;curveFitting=1;fontFamily=Architects Daughter;fontSource=https%3A%2F%2Ffonts.googleapis.com%2Fcss%3Ffamily%3DArchitects%2BDaughter;curved=1;dashed=1;fillColor=#f8cecc;strokeColor=#b85450;exitX=0.913;exitY=0.927;exitDx=0;exitDy=0;exitPerimeter=0;startFill=0;entryX=0.017;entryY=0.415;entryDx=0;entryDy=0;entryPerimeter=0;" parent="1" source="mCnlmI2ltX-tOoQuIW3s-1" target="mCnlmI2ltX-tOoQuIW3s-25" edge="1">
          <mxGeometry width="50" height="50" relative="1" as="geometry">
            <mxPoint x="595" y="730" as="sourcePoint" />
            <mxPoint x="768" y="731" as="targetPoint" />
            <Array as="points">
              <mxPoint x="710" y="750" />
            </Array>
          </mxGeometry>
        </mxCell>
        <mxCell id="mCnlmI2ltX-tOoQuIW3s-45" value="result" style="edgeLabel;html=1;align=center;verticalAlign=middle;resizable=0;points=[];sketch=1;hachureGap=4;jiggle=2;curveFitting=1;fontFamily=Helvetica;fontSize=12;" parent="mCnlmI2ltX-tOoQuIW3s-44" vertex="1" connectable="0">
          <mxGeometry x="-0.2425" y="6" relative="1" as="geometry">
            <mxPoint x="11" y="4" as="offset" />
          </mxGeometry>
        </mxCell>
        <mxCell id="mCnlmI2ltX-tOoQuIW3s-46" value="" style="endArrow=classic;html=1;rounded=0;sketch=1;hachureGap=4;jiggle=2;curveFitting=1;fontFamily=Architects Daughter;fontSource=https%3A%2F%2Ffonts.googleapis.com%2Fcss%3Ffamily%3DArchitects%2BDaughter;entryX=0;entryY=0.5;entryDx=0;entryDy=0;exitX=1;exitY=0.5;exitDx=0;exitDy=0;" parent="1" source="mCnlmI2ltX-tOoQuIW3s-42" edge="1">
          <mxGeometry width="50" height="50" relative="1" as="geometry">
            <mxPoint x="944" y="540" as="sourcePoint" />
            <mxPoint x="995.75" y="600" as="targetPoint" />
          </mxGeometry>
        </mxCell>
        <mxCell id="mCnlmI2ltX-tOoQuIW3s-49" value="&lt;span style=&quot;color: rgb(51, 51, 51); font-family: Helvetica;&quot;&gt;hook.match&lt;/span&gt;" style="ellipse;whiteSpace=wrap;html=1;sketch=1;hachureGap=4;jiggle=2;curveFitting=1;fontFamily=Architects Daughter;fontSource=https%3A%2F%2Ffonts.googleapis.com%2Fcss%3Ffamily%3DArchitects%2BDaughter;fillColor=#dae8fc;strokeColor=#6c8ebf;" parent="1" vertex="1">
          <mxGeometry x="556.5" y="383" width="80" height="30" as="geometry" />
        </mxCell>
        <mxCell id="mCnlmI2ltX-tOoQuIW3s-50" value="&amp;amp; match chinese" style="text;html=1;align=center;verticalAlign=middle;whiteSpace=wrap;rounded=0;fontFamily=Helvetica;" parent="1" vertex="1">
          <mxGeometry x="642.25" y="381" width="91" height="34" as="geometry" />
        </mxCell>
        <mxCell id="mCnlmI2ltX-tOoQuIW3s-51" value="match provided&amp;nbsp;text" style="text;html=1;align=center;verticalAlign=middle;whiteSpace=wrap;rounded=0;fontFamily=Helvetica;" parent="1" vertex="1">
          <mxGeometry x="625.25" y="305" width="108" height="34" as="geometry" />
        </mxCell>
        <mxCell id="mCnlmI2ltX-tOoQuIW3s-52" value="match document selections" style="text;html=1;align=center;verticalAlign=middle;whiteSpace=wrap;rounded=0;fontFamily=Helvetica;" parent="1" vertex="1">
          <mxGeometry x="585.25" y="341" width="148" height="34" as="geometry" />
        </mxCell>
        <mxCell id="mCnlmI2ltX-tOoQuIW3s-53" value="" style="endArrow=none;dashed=1;html=1;dashPattern=1 3;strokeWidth=1;rounded=1;sketch=1;hachureGap=4;jiggle=2;curveFitting=1;fontFamily=Architects Daughter;fontSource=https%3A%2F%2Ffonts.googleapis.com%2Fcss%3Ffamily%3DArchitects%2BDaughter;exitX=0;exitY=0.5;exitDx=0;exitDy=0;curved=0;entryX=0;entryY=1;entryDx=0;entryDy=0;strokeColor=#999999;" parent="1" source="mCnlmI2ltX-tOoQuIW3s-34" edge="1">
          <mxGeometry width="50" height="50" relative="1" as="geometry">
            <mxPoint x="784" y="327" as="sourcePoint" />
            <mxPoint x="542" y="416.9999999999999" as="targetPoint" />
            <Array as="points">
              <mxPoint x="741" y="418" />
            </Array>
          </mxGeometry>
        </mxCell>
        <mxCell id="mCnlmI2ltX-tOoQuIW3s-54" value="" style="endArrow=none;dashed=1;html=1;dashPattern=1 3;strokeWidth=1;rounded=1;sketch=1;hachureGap=4;jiggle=2;curveFitting=1;fontFamily=Architects Daughter;fontSource=https%3A%2F%2Ffonts.googleapis.com%2Fcss%3Ffamily%3DArchitects%2BDaughter;exitX=0;exitY=0.5;exitDx=0;exitDy=0;curved=0;strokeColor=#999999;" parent="1" source="mCnlmI2ltX-tOoQuIW3s-34" edge="1">
          <mxGeometry width="50" height="50" relative="1" as="geometry">
            <mxPoint x="784" y="285" as="sourcePoint" />
            <mxPoint x="571" y="376" as="targetPoint" />
            <Array as="points">
              <mxPoint x="741" y="376" />
            </Array>
          </mxGeometry>
        </mxCell>
        <mxCell id="mCnlmI2ltX-tOoQuIW3s-55" value="" style="endArrow=none;dashed=1;html=1;dashPattern=1 3;strokeWidth=1;rounded=1;sketch=1;hachureGap=4;jiggle=2;curveFitting=1;fontFamily=Architects Daughter;fontSource=https%3A%2F%2Ffonts.googleapis.com%2Fcss%3Ffamily%3DArchitects%2BDaughter;exitX=0;exitY=0.5;exitDx=0;exitDy=0;curved=0;strokeColor=#999999;" parent="1" source="mCnlmI2ltX-tOoQuIW3s-34" edge="1">
          <mxGeometry width="50" height="50" relative="1" as="geometry">
            <mxPoint x="784" y="282" as="sourcePoint" />
            <mxPoint x="611" y="340" as="targetPoint" />
            <Array as="points">
              <mxPoint x="741" y="340" />
            </Array>
          </mxGeometry>
        </mxCell>
        <mxCell id="mCnlmI2ltX-tOoQuIW3s-56" value="filter by &lt;b style=&quot;&quot;&gt;config.conflictPolicy&lt;/b&gt;" style="text;html=1;align=center;verticalAlign=middle;whiteSpace=wrap;rounded=0;fontFamily=Helvetica;direction=east;" parent="1" vertex="1">
          <mxGeometry x="934" y="444" width="165.75" height="34" as="geometry" />
        </mxCell>
        <mxCell id="mCnlmI2ltX-tOoQuIW3s-58" value="" style="endArrow=classic;html=1;rounded=0;hachureGap=4;strokeColor=#A8201A;fontFamily=Architects Daughter;fontSource=https%3A%2F%2Ffonts.googleapis.com%2Fcss%3Ffamily%3DArchitects%2BDaughter;fontColor=#143642;fillColor=#FAE5C7;sketch=1;curveFitting=1;jiggle=2;exitX=1;exitY=0.5;exitDx=0;exitDy=0;curved=1;entryX=0.188;entryY=0.03;entryDx=0;entryDy=0;entryPerimeter=0;" parent="1" source="mCnlmI2ltX-tOoQuIW3s-63" target="mCnlmI2ltX-tOoQuIW3s-1" edge="1">
          <mxGeometry width="50" height="50" relative="1" as="geometry">
            <mxPoint x="440" y="529" as="sourcePoint" />
            <mxPoint x="650.75" y="605.5" as="targetPoint" />
            <Array as="points">
              <mxPoint x="530" y="540" />
            </Array>
          </mxGeometry>
        </mxCell>
        <mxCell id="mCnlmI2ltX-tOoQuIW3s-59" value="write hook" style="edgeLabel;html=1;align=center;verticalAlign=middle;resizable=0;points=[];sketch=1;hachureGap=4;jiggle=2;curveFitting=1;fontFamily=Helvetica;fontSize=12;" parent="mCnlmI2ltX-tOoQuIW3s-58" vertex="1" connectable="0">
          <mxGeometry x="-0.2814" y="-8" relative="1" as="geometry">
            <mxPoint x="20" y="7" as="offset" />
          </mxGeometry>
        </mxCell>
        <mxCell id="mCnlmI2ltX-tOoQuIW3s-60" value="write i18nGroups" style="edgeLabel;html=1;align=center;verticalAlign=middle;resizable=0;points=[];sketch=1;hachureGap=4;jiggle=2;curveFitting=1;fontFamily=Helvetica;fontSize=12;" parent="1" vertex="1" connectable="0">
          <mxGeometry x="608.9950391160615" y="542.0037340874807" as="geometry" />
        </mxCell>
        <mxCell id="mCnlmI2ltX-tOoQuIW3s-61" value="trigger event" style="swimlane;fontStyle=1;align=center;verticalAlign=top;childLayout=stackLayout;horizontal=1;startSize=26;horizontalStack=0;resizeParent=1;resizeParentMax=0;resizeLast=0;collapsible=1;marginBottom=0;whiteSpace=wrap;html=1;hachureGap=4;strokeColor=#d79b00;fontFamily=Helvetica;fillColor=#ffe6cc;sketch=1;curveFitting=1;jiggle=2;" parent="1" vertex="1">
          <mxGeometry x="210" y="450" width="200" height="90" as="geometry" />
        </mxCell>
        <mxCell id="mCnlmI2ltX-tOoQuIW3s-62" value="init" style="text;strokeColor=none;fillColor=none;align=center;verticalAlign=top;spacingLeft=4;spacingRight=4;overflow=hidden;rotatable=0;points=[[0,0.5],[1,0.5]];portConstraint=eastwest;whiteSpace=wrap;html=1;fontFamily=Helvetica;fontColor=#143642;sketch=1;curveFitting=1;jiggle=2;" parent="mCnlmI2ltX-tOoQuIW3s-61" vertex="1">
          <mxGeometry y="26" width="200" height="20" as="geometry" />
        </mxCell>
        <mxCell id="mCnlmI2ltX-tOoQuIW3s-63" value="hook file change" style="text;strokeColor=none;fillColor=none;align=center;verticalAlign=top;spacingLeft=4;spacingRight=4;overflow=hidden;rotatable=0;points=[[0,0.5],[1,0.5]];portConstraint=eastwest;whiteSpace=wrap;html=1;fontFamily=Helvetica;fontColor=#143642;sketch=1;curveFitting=1;jiggle=2;" parent="mCnlmI2ltX-tOoQuIW3s-61" vertex="1">
          <mxGeometry y="46" width="200" height="20" as="geometry" />
        </mxCell>
        <mxCell id="mCnlmI2ltX-tOoQuIW3s-64" value="&lt;b&gt;config.hookFilePattern&lt;/b&gt; change" style="text;strokeColor=none;fillColor=none;align=center;verticalAlign=top;spacingLeft=4;spacingRight=4;overflow=hidden;rotatable=0;points=[[0,0.5],[1,0.5]];portConstraint=eastwest;whiteSpace=wrap;html=1;fontFamily=Helvetica;fontColor=#143642;sketch=1;curveFitting=1;jiggle=2;" parent="mCnlmI2ltX-tOoQuIW3s-61" vertex="1">
          <mxGeometry y="66" width="200" height="24" as="geometry" />
        </mxCell>
        <mxCell id="mCnlmI2ltX-tOoQuIW3s-65" value="&lt;font style=&quot;&quot; face=&quot;Helvetica&quot;&gt;Hook&lt;/font&gt;" style="swimlane;childLayout=stackLayout;resizeParent=1;resizeParentMax=0;horizontal=1;startSize=20;horizontalStack=0;html=1;hachureGap=4;strokeColor=#0F8B8D;fontFamily=Architects Daughter;fontSource=https%3A%2F%2Ffonts.googleapis.com%2Fcss%3Ffamily%3DArchitects%2BDaughter;fontColor=#143642;fillColor=#FAE5C7;sketch=1;curveFitting=1;jiggle=2;" parent="1" vertex="1">
          <mxGeometry x="392.5" y="687" width="114" height="120" as="geometry" />
        </mxCell>
        <mxCell id="mCnlmI2ltX-tOoQuIW3s-66" value="&lt;div style=&quot;line-height: 18px; white-space: pre;&quot;&gt;&lt;font face=&quot;Helvetica&quot; style=&quot;color: rgb(0, 0, 0);&quot;&gt;match: func;&lt;/font&gt;&lt;/div&gt;" style="text;strokeColor=none;fillColor=none;align=left;verticalAlign=middle;spacingLeft=4;spacingRight=4;overflow=hidden;points=[[0,0.5],[1,0.5]];portConstraint=eastwest;rotatable=0;whiteSpace=wrap;html=1;fontFamily=Architects Daughter;fontSource=https%3A%2F%2Ffonts.googleapis.com%2Fcss%3Ffamily%3DArchitects%2BDaughter;fontColor=#143642;sketch=1;curveFitting=1;jiggle=2;" parent="mCnlmI2ltX-tOoQuIW3s-65" vertex="1">
          <mxGeometry y="20" width="114" height="20" as="geometry" />
        </mxCell>
        <mxCell id="mCnlmI2ltX-tOoQuIW3s-67" value="convert: func;" style="text;strokeColor=none;fillColor=none;align=left;verticalAlign=middle;spacingLeft=4;spacingRight=4;overflow=hidden;points=[[0,0.5],[1,0.5]];portConstraint=eastwest;rotatable=0;whiteSpace=wrap;html=1;fontFamily=Helvetica;fontColor=#143642;sketch=1;curveFitting=1;jiggle=2;" parent="mCnlmI2ltX-tOoQuIW3s-65" vertex="1">
          <mxGeometry y="40" width="114" height="20" as="geometry" />
        </mxCell>
        <mxCell id="mCnlmI2ltX-tOoQuIW3s-68" value="write: func;" style="text;strokeColor=none;fillColor=none;align=left;verticalAlign=middle;spacingLeft=4;spacingRight=4;overflow=hidden;points=[[0,0.5],[1,0.5]];portConstraint=eastwest;rotatable=0;whiteSpace=wrap;html=1;fontFamily=Helvetica;fontColor=#143642;sketch=1;curveFitting=1;jiggle=2;" parent="mCnlmI2ltX-tOoQuIW3s-65" vertex="1">
          <mxGeometry y="60" width="114" height="20" as="geometry" />
        </mxCell>
        <mxCell id="mCnlmI2ltX-tOoQuIW3s-69" value="collectI18n: func;" style="text;strokeColor=none;fillColor=none;align=left;verticalAlign=middle;spacingLeft=4;spacingRight=4;overflow=hidden;points=[[0,0.5],[1,0.5]];portConstraint=eastwest;rotatable=0;whiteSpace=wrap;html=1;fontFamily=Helvetica;fontColor=#143642;sketch=1;curveFitting=1;jiggle=2;" parent="mCnlmI2ltX-tOoQuIW3s-65" vertex="1">
          <mxGeometry y="80" width="114" height="20" as="geometry" />
        </mxCell>
        <mxCell id="mCnlmI2ltX-tOoQuIW3s-70" value="matchI18n: func;" style="text;strokeColor=none;fillColor=none;align=left;verticalAlign=middle;spacingLeft=4;spacingRight=4;overflow=hidden;points=[[0,0.5],[1,0.5]];portConstraint=eastwest;rotatable=0;whiteSpace=wrap;html=1;fontFamily=Helvetica;fontColor=#143642;sketch=1;curveFitting=1;jiggle=2;" parent="mCnlmI2ltX-tOoQuIW3s-65" vertex="1">
          <mxGeometry y="100" width="114" height="20" as="geometry" />
        </mxCell>
        <mxCell id="mCnlmI2ltX-tOoQuIW3s-71" value="" style="edgeStyle=orthogonalEdgeStyle;fontSize=12;html=1;endArrow=ERmandOne;startArrow=ERmandOne;rounded=0;hachureGap=4;strokeColor=#A8201A;fontFamily=Architects Daughter;fontSource=https%3A%2F%2Ffonts.googleapis.com%2Fcss%3Ffamily%3DArchitects%2BDaughter;fontColor=#143642;fillColor=#FAE5C7;sketch=1;curveFitting=1;jiggle=2;exitX=0.5;exitY=0;exitDx=0;exitDy=0;entryX=0;entryY=0.5;entryDx=0;entryDy=0;entryPerimeter=0;" parent="1" source="mCnlmI2ltX-tOoQuIW3s-65" target="mCnlmI2ltX-tOoQuIW3s-1" edge="1">
          <mxGeometry width="100" height="100" relative="1" as="geometry">
            <mxPoint x="430" y="707" as="sourcePoint" />
            <mxPoint x="565" y="660" as="targetPoint" />
          </mxGeometry>
        </mxCell>
        <mxCell id="0F0WmZvGHLSkJ6r1DV29-2" value="&lt;span style=&quot;color: rgb(51, 51, 51); font-family: Helvetica;&quot;&gt;hook.write&lt;/span&gt;" style="ellipse;whiteSpace=wrap;html=1;hachureGap=4;fontFamily=Architects Daughter;fontSource=https%3A%2F%2Ffonts.googleapis.com%2Fcss%3Ffamily%3DArchitects%2BDaughter;fillColor=#dae8fc;strokeColor=#6c8ebf;sketch=1;curveFitting=1;jiggle=2;" parent="1" vertex="1">
          <mxGeometry x="995.75" y="570" width="120" height="60" as="geometry" />
        </mxCell>
        <mxCell id="0F0WmZvGHLSkJ6r1DV29-5" value="" style="endArrow=classic;html=1;rounded=0;sketch=1;hachureGap=4;jiggle=2;curveFitting=1;fontFamily=Architects Daughter;fontSource=https%3A%2F%2Ffonts.googleapis.com%2Fcss%3Ffamily%3DArchitects%2BDaughter;curved=1;exitX=0.5;exitY=1;exitDx=0;exitDy=0;" parent="1" source="0F0WmZvGHLSkJ6r1DV29-2" target="mCnlmI2ltX-tOoQuIW3s-30" edge="1">
          <mxGeometry width="50" height="50" relative="1" as="geometry">
            <mxPoint x="1056" y="630" as="sourcePoint" />
            <mxPoint x="1056" y="717" as="targetPoint" />
            <Array as="points" />
          </mxGeometry>
        </mxCell>
        <mxCell id="0F0WmZvGHLSkJ6r1DV29-6" value="write" style="edgeLabel;html=1;align=center;verticalAlign=middle;resizable=0;points=[];sketch=1;hachureGap=4;jiggle=2;curveFitting=1;fontFamily=Helvetica;fontSize=12;" parent="0F0WmZvGHLSkJ6r1DV29-5" vertex="1" connectable="0">
          <mxGeometry x="-0.1505" relative="1" as="geometry">
            <mxPoint x="-1" y="5" as="offset" />
          </mxGeometry>
        </mxCell>
        <mxCell id="XGtsbhqSM2HDVS7HE5GL-1" value="" style="endArrow=none;dashed=1;html=1;dashPattern=1 3;strokeWidth=1;rounded=1;sketch=1;hachureGap=4;jiggle=2;curveFitting=1;fontFamily=Architects Daughter;fontSource=https%3A%2F%2Ffonts.googleapis.com%2Fcss%3Ffamily%3DArchitects%2BDaughter;exitX=1;exitY=0.5;exitDx=0;exitDy=0;curved=0;strokeColor=#999999;" edge="1" parent="1" source="mCnlmI2ltX-tOoQuIW3s-38">
          <mxGeometry width="50" height="50" relative="1" as="geometry">
            <mxPoint x="904" y="460" as="sourcePoint" />
            <mxPoint x="1110" y="480" as="targetPoint" />
            <Array as="points">
              <mxPoint x="930" y="480" />
            </Array>
          </mxGeometry>
        </mxCell>
      </root>
    </mxGraphModel>
  </diagram>
</mxfile>
